<svg xmlns="http://www.w3.org/2000/svg" width="51.073" height="51.073" viewBox="0 0 51.073 51.073">
  <defs>
    <style>
      .cls-1 {
        fill: #fff;
      }
    </style>
  </defs>
  <path id="Icon_awesome-user-circle" data-name="Icon awesome-user-circle" class="cls-1" d="M25.536.563A25.536,25.536,0,1,0,51.073,26.1,25.532,25.532,0,0,0,25.536.563Zm0,9.885a9.061,9.061,0,1,1-9.061,9.061A9.061,9.061,0,0,1,25.536,10.448Zm0,35.421a19.732,19.732,0,0,1-15.085-7.022,11.48,11.48,0,0,1,10.142-6.158,2.52,2.52,0,0,1,.731.113,13.633,13.633,0,0,0,4.211.71,13.581,13.581,0,0,0,4.211-.71,2.519,2.519,0,0,1,.731-.113,11.48,11.48,0,0,1,10.142,6.158A19.732,19.732,0,0,1,25.536,45.869Z" transform="translate(0 -0.563)"/>
</svg>
