<svg xmlns="http://www.w3.org/2000/svg" width="102.614" height="117.303" viewBox="0 0 102.614 117.303">
  <defs>
    <style>
      .cls-1 {
        fill: #fff;
      }
    </style>
  </defs>
  <path id="Icon_open-pin" data-name="Icon open-pin" class="cls-1" d="M19.643.021A7.423,7.423,0,1,0,21.989,14.68h7.33V44H14.659A14.7,14.7,0,0,0,0,58.657H43.977v43.977l6.45,14.659,8.209-14.659V58.657h43.977A14.7,14.7,0,0,0,87.955,44H73.3V14.68h7.33a7.33,7.33,0,0,0,0-14.659H21.989a7.33,7.33,0,0,0-1.319,0,7.329,7.329,0,0,0-.88,0Z" transform="translate(0 0.009)"/>
</svg>
