<svg xmlns="http://www.w3.org/2000/svg" width="63.271" height="51.408" viewBox="0 0 63.271 51.408">
  <defs>
    <style>
      .cls-1 {
        fill: #fff;
      }
    </style>
  </defs>
  <path id="Icon_awesome-list-ul" data-name="Icon awesome-list-ul" class="cls-1" d="M5.932,3.375a5.932,5.932,0,1,0,5.932,5.932A5.932,5.932,0,0,0,5.932,3.375Zm0,19.772a5.932,5.932,0,1,0,5.932,5.932,5.932,5.932,0,0,0-5.932-5.932Zm0,19.772a5.932,5.932,0,1,0,5.932,5.932A5.932,5.932,0,0,0,5.932,42.92ZM61.294,44.9H21.75a1.977,1.977,0,0,0-1.977,1.977v3.954a1.977,1.977,0,0,0,1.977,1.977H61.294a1.977,1.977,0,0,0,1.977-1.977V46.874A1.977,1.977,0,0,0,61.294,44.9Zm0-39.545H21.75a1.977,1.977,0,0,0-1.977,1.977v3.954a1.977,1.977,0,0,0,1.977,1.977H61.294a1.977,1.977,0,0,0,1.977-1.977V7.329A1.977,1.977,0,0,0,61.294,5.352Zm0,19.772H21.75A1.977,1.977,0,0,0,19.772,27.1v3.954a1.977,1.977,0,0,0,1.977,1.977H61.294a1.977,1.977,0,0,0,1.977-1.977V27.1A1.977,1.977,0,0,0,61.294,25.125Z" transform="translate(0 -3.375)"/>
</svg>
