<svg id="anysex" xmlns="http://www.w3.org/2000/svg" width="49.467" height="49.467" viewBox="0 0 49.467 49.467">
  <path id="Path_10" data-name="Path 10" d="M26.183,13.14A13.092,13.092,0,1,0,11.69,26.1v8.775H7.343a1.449,1.449,0,0,0,0,2.9H11.69v4.348a1.449,1.449,0,0,0,2.9,0V37.777h4.348a1.449,1.449,0,0,0,0-2.9H14.589V26.1A13.061,13.061,0,0,0,26.183,13.14ZM2.9,13.14A10.193,10.193,0,1,1,13.14,23.284,10.253,10.253,0,0,1,2.9,13.14Z" fill="#dedede"/>
  <path id="Path_11" data-name="Path 11" d="M255.492,78.47V65.948l3.323,3.323a1.449,1.449,0,0,0,2.049-2.049l-5.8-5.8a1.449,1.449,0,0,0-2.049,0l-5.8,5.8a1.449,1.449,0,1,0,2.05,2.049l3.323-3.323V78.471a13.094,13.094,0,0,0,1.449,26.1,13.089,13.089,0,0,0,1.449-26.1Zm-1.449,23.2a10.193,10.193,0,1,1,10.241-10.241A10.2,10.2,0,0,1,254.043,101.675Z" transform="translate(-217.716 -55.106)" fill="#dedede"/>
</svg>
