<svg xmlns="http://www.w3.org/2000/svg" xmlns:xlink="http://www.w3.org/1999/xlink" width="569.999" height="571.499" viewBox="0 0 569.999 571.499">
  <defs>
    <filter id="Intersection_6" x="0" y="0" width="569.999" height="571.499" filterUnits="userSpaceOnUse">
      <feOffset dx="10" dy="10" input="SourceAlpha"/>
      <feGaussianBlur stdDeviation="10" result="blur"/>
      <feFlood flood-opacity="0.294"/>
      <feComposite operator="in" in2="blur"/>
      <feComposite in="SourceGraphic"/>
    </filter>
  </defs>
  <g transform="matrix(1, 0, 0, 1, 0, 0)" filter="url(#Intersection_6)">
    <path id="Intersection_6-2" data-name="Intersection 6" d="M24.565,512.5a19.273,19.273,0,0,1-8.987-5.141L5.342,497.122A18.16,18.16,0,0,1,.5,488.468v-8.525a18.159,18.159,0,0,1,4.84-8.654l8.755-8.753a7.718,7.718,0,1,1,10.915,10.915L16.257,482.2a2.832,2.832,0,0,0,0,4l10.53,10.53a2.829,2.829,0,0,0,4,0l91.026-91.026a2.835,2.835,0,0,0,0-4l-10.53-10.53a2.829,2.829,0,0,0-4,0L48.959,449.5a7.718,7.718,0,0,1-10.914-10.915l58.324-58.324A18.246,18.246,0,0,1,122,380.081l77.123-77.123c-25.988-29.208-37.884-68.711-33.582-112.142,4.529-45.708,26.521-90.379,61.925-125.783a228.046,228.046,0,0,1,30.774-25.8,7.718,7.718,0,0,1,8.781,12.694,212.73,212.73,0,0,0-28.64,24.023c-32.889,32.889-53.3,74.222-57.478,116.391-4.121,41.593,8.108,79,34.434,105.322,54.772,54.771,154.234,44.434,221.713-23.045S514.867,107.673,460.094,52.9c-20.568-20.568-48-32.613-79.337-34.836-28.82-2.043-58.863,4.257-87.325,18.257a7.679,7.679,0,0,1-10.123-3.294l-.021-.036A7.665,7.665,0,0,1,286.6,22.479C317.522,7.267,350.3.43,381.848,2.667c35.1,2.489,65.928,16.085,89.16,39.318,23.92,23.92,37.529,55.75,39.492,91.458V151.7q-.214,4-.615,8.044c-4.53,45.707-26.521,90.379-61.924,125.782s-80.075,57.4-125.784,61.925q-8.726.864-17.23.862c-36.6,0-69.612-11.943-94.907-34.449L132.912,391a18.282,18.282,0,0,1-.181,25.631L41.705,507.653a18.147,18.147,0,0,1-8.627,4.847Zm206.34-230.414c-21.572-21.572-31.549-52.675-28.09-87.582,3.678-37.114,21.838-73.689,51.136-102.988S319.827,44.057,356.941,40.38c34.895-3.458,66.007,6.518,87.58,28.091s31.547,52.676,28.09,87.58c-3.677,37.114-21.837,73.689-51.136,102.988S355.6,306.5,318.487,310.175q-6.8.675-13.393.671C275.664,310.846,249.678,300.856,230.906,282.085Zm80.815,13.134q2.6-.144,5.244-.4a138.689,138.689,0,0,0,37.2-9.131L337.71,269.23ZM247.556,276.35a82.165,82.165,0,0,0,29.469,15.241l-22.353-22.354Zm18.028-18.029,30.6,30.6,30.608-30.608-30.6-30.6Zm83.04,0,20.506,20.506a169.564,169.564,0,0,0,35.853-25.359L379.229,227.71ZM236.64,265.437l7.115-7.115L221.4,235.966A82.211,82.211,0,0,0,236.64,265.437ZM224.064,216.8l30.605,30.606L285.277,216.8l-30.605-30.606Zm83.043,0,30.6,30.6L368.316,216.8l-30.6-30.6Zm83.039-.007L415.9,242.545A169.54,169.54,0,0,0,441.254,206.7l-20.507-20.507ZM265.588,175.279l30.6,30.606L326.8,175.279l-30.605-30.605Zm83.041,0,30.6,30.6,30.6-30.6-30.6-30.6ZM218.176,196.028q-.263,2.638-.4,5.237l25.986-25.987-16.451-16.451A138.717,138.717,0,0,0,218.176,196.028Zm213.484-20.749,16.455,16.456a138.615,138.615,0,0,0,9.135-37.2c.175-1.761.305-3.508.4-5.244Zm-41.517-41.516,30.6,30.6,30.608-30.609-30.6-30.6Zm-155.974,10.1,20.5,20.5,30.605-30.606-25.75-25.75A169.5,169.5,0,0,0,234.17,143.862Zm72.939-10.105,30.606,30.6,30.6-30.6-30.606-30.6Zm41.515-41.515,30.6,30.605,30.609-30.608-30.6-30.605Zm-78.179,4.85,25.75,25.75,30.6-30.6-20.5-20.5A169.583,169.583,0,0,0,270.445,97.092Zm161.223-4.853L454.03,114.6a82.193,82.193,0,0,0-15.245-29.479Zm-73.206-36.5a138.77,138.77,0,0,0-37.206,9.134l16.453,16.453L363.7,55.341C361.964,55.439,360.221,55.567,358.462,55.741Zm62.291,25.585,7.112-7.113a82.149,82.149,0,0,0-29.45-15.225ZM24.716,151.352a7.723,7.723,0,0,1-3.233-6.279V8.719a7.719,7.719,0,0,1,10.222-7.3l99.076,33.989h17.474a41.488,41.488,0,0,1,0,82.975H130.781L31.705,152.371a7.72,7.72,0,0,1-6.989-1.019Zm12.2-17.087,84.858-29.111V84.612H36.919Zm100.293-31.318h11.044a26.052,26.052,0,0,0,0-52.1H137.212ZM36.919,69.176h84.857V48.636L36.919,19.524Z" transform="translate(19.5 19)" fill="#fea8ff"/>
  </g>
</svg>
