<svg id="basketball" xmlns="http://www.w3.org/2000/svg" xmlns:xlink="http://www.w3.org/1999/xlink" width="512" height="512" viewBox="0 0 512 512">
  <defs>
    <linearGradient id="linear-gradient" x1="0.821" y1="0.888" x2="0.229" y2="0.076" gradientUnits="objectBoundingBox">
      <stop offset="0" stop-color="#ff7600"/>
      <stop offset="1" stop-color="#ffc833"/>
    </linearGradient>
  </defs>
  <g id="Group_14" data-name="Group 14">
    <g id="Group_13" data-name="Group 13">
      <path id="Path_18" data-name="Path 18" d="M256,0C114.842,0,0,114.842,0,256S114.842,512,256,512,512,397.158,512,256,397.158,0,256,0Zm0,494.933C124.254,494.933,17.067,387.746,17.067,256S124.254,17.067,256,17.067,494.933,124.254,494.933,256,387.746,494.933,256,494.933Z" fill="url(#linear-gradient)"/>
    </g>
  </g>
  <g id="Group_16" data-name="Group 16">
    <g id="Group_15" data-name="Group 15">
      <path id="Path_19" data-name="Path 19" d="M493.278,332.954c-39.219-24.533-66.611-98.287-66.611-179.354a345.95,345.95,0,0,1,8-75.17A8.537,8.537,0,1,0,418,74.718a363.5,363.5,0,0,0-8.4,78.882c0,88.013,29.995,165.9,74.633,193.818a8.53,8.53,0,1,0,9.045-14.464Z" fill="url(#linear-gradient)"/>
    </g>
  </g>
  <g id="Group_18" data-name="Group 18">
    <g id="Group_17" data-name="Group 17">
      <path id="Path_20" data-name="Path 20" d="M192.444,9.8a8.579,8.579,0,0,0-5.487-.3C76.885,40.269,0,141.636,0,256,0,397.158,114.842,512,256,512a256.421,256.421,0,0,0,120.823-30.285,8.56,8.56,0,0,0,4.335-5.845l2.739-13.73.179-1.118c4.156-26.112,8.457-53.1,8.457-81.289C392.533,206.626,312.124,57.958,192.444,9.8Zm174.78,448.538-2.005,10.206A239.467,239.467,0,0,1,256,494.934C124.254,494.933,17.067,387.746,17.067,256c0-105.771,70.451-199.629,171.691-229.274C300.553,73.472,375.467,214.835,375.467,379.733,375.467,406.571,371.277,432.888,367.224,458.334Z" fill="url(#linear-gradient)"/>
    </g>
  </g>
  <g id="Group_20" data-name="Group 20">
    <g id="Group_19" data-name="Group 19">
      <path id="Path_21" data-name="Path 21" d="M199.014,444.194c-16.051-5.478-32.171-13.542-49.3-24.678a8.533,8.533,0,1,0-9.31,14.3c18.33,11.913,35.7,20.591,53.1,26.522a8.651,8.651,0,0,0,2.756.461,8.531,8.531,0,0,0,2.748-16.607Z" fill="url(#linear-gradient)"/>
    </g>
  </g>
  <g id="Group_22" data-name="Group 22">
    <g id="Group_21" data-name="Group 21">
      <path id="Path_22" data-name="Path 22" d="M109.056,387.192c-2-2.483-4.181-5.094-6.443-7.782-6.639-7.91-14.174-16.87-18.193-24.858a8.533,8.533,0,0,0-15.24,7.68c4.915,9.762,13.124,19.533,20.369,28.16,2.176,2.586,4.284,5.094,6.195,7.475a8.532,8.532,0,1,0,13.312-10.675Z" fill="url(#linear-gradient)"/>
    </g>
  </g>
  <g id="Group_24" data-name="Group 24">
    <g id="Group_23" data-name="Group 23">
      <path id="Path_23" data-name="Path 23" d="M494.933,182.733c-249.813-1.988-397.15,81.741-476.8,152.627a8.531,8.531,0,1,0,11.34,12.749c77.406-68.89,221.082-150.332,465.3-148.309h.085a8.534,8.534,0,0,0,.078-17.067Z" fill="url(#linear-gradient)"/>
    </g>
  </g>
  <g id="Group_26" data-name="Group 26">
    <g id="Group_25" data-name="Group 25">
      <path id="Path_24" data-name="Path 24" d="M77.662,85.333c-2.6,0-5.188-.111-7.774-.239a8.535,8.535,0,0,0-.811,17.05c2.85.137,5.709.256,8.585.256,112.93,0,204.8,109.1,204.8,243.2,0,59.716-14.5,112.572-41.924,152.849a8.537,8.537,0,0,0,14.115,9.608c29.355-43.127,44.877-99.3,44.877-162.458C299.529,202.086,200,85.333,77.662,85.333Z" fill="url(#linear-gradient)"/>
    </g>
  </g>
</svg>
