<svg xmlns="http://www.w3.org/2000/svg" width="56.448" height="56.448" viewBox="0 0 56.448 56.448">
  <path id="Icon_awesome-clock" data-name="Icon awesome-clock" d="M28.787.563A28.224,28.224,0,1,0,57.011,28.787,28.219,28.219,0,0,0,28.787.563Zm6.5,39.844-10.038-7.3a1.375,1.375,0,0,1-.558-1.1V12.854a1.37,1.37,0,0,1,1.366-1.366h5.463a1.37,1.37,0,0,1,1.366,1.366V28.525l7.227,5.258a1.365,1.365,0,0,1,.3,1.912L37.2,40.111A1.375,1.375,0,0,1,35.285,40.406Z" transform="translate(-0.563 -0.563)" fill="#fff"/>
</svg>
