<svg xmlns="http://www.w3.org/2000/svg" width="168.506" height="195.937" viewBox="0 0 168.506 195.937">
  <defs>
    <style>
      .cls-1 {
        fill: #290000;
        opacity: 0.521;
      }
    </style>
  </defs>
  <path id="Intersection_1" data-name="Intersection 1" class="cls-1" d="M19,195.937a19,19,0,0,1-19-19V18.088A108.517,108.517,0,0,1,124.282,195.937Zm20.87-45.425A20.127,20.127,0,1,0,60,130.386,20.126,20.126,0,0,0,39.87,150.512Zm1.018-92.471,3.246,59.505a5.249,5.249,0,0,0,5.243,4.964h21.24a5.249,5.249,0,0,0,5.243-4.964l3.246-59.505A5.251,5.251,0,0,0,73.863,52.5H46.13A5.251,5.251,0,0,0,40.888,58.041Z"/>
</svg>
