<svg xmlns="http://www.w3.org/2000/svg" width="124.688" height="124.688" viewBox="0 0 124.688 124.688">
  <defs>
    <style>
      .cls-1 {
        fill: #737487;
      }
    </style>
  </defs>
  <path id="Icon_awesome-exclamation-circle" data-name="Icon awesome-exclamation-circle" class="cls-1" d="M125.25,62.906A62.344,62.344,0,1,1,62.906.562,62.34,62.34,0,0,1,125.25,62.906ZM62.906,75.476A11.564,11.564,0,1,0,74.47,87.039,11.564,11.564,0,0,0,62.906,75.476ZM51.927,33.91,53.792,68.1A3.017,3.017,0,0,0,56.8,70.951h12.2A3.017,3.017,0,0,0,72.02,68.1L73.885,33.91a3.017,3.017,0,0,0-3.012-3.181H54.939A3.017,3.017,0,0,0,51.927,33.91Z" transform="translate(-0.563 -0.563)"/>
</svg>
