<svg xmlns="http://www.w3.org/2000/svg" xmlns:xlink="http://www.w3.org/1999/xlink" width="510.747" height="512.003" viewBox="0 0 510.747 512.003">
  <defs>
    <linearGradient id="linear-gradient" x1="0.919" y1="0.069" x2="0.032" y2="0.961" gradientUnits="objectBoundingBox">
      <stop offset="0" stop-color="#7600db"/>
      <stop offset="1" stop-color="#ff93ea"/>
    </linearGradient>
  </defs>
  <g id="badminton" transform="translate(-0.628 0)">
    <g id="Group_8" data-name="Group 8">
      <g id="Group_7" data-name="Group 7">
        <path id="Path_15" data-name="Path 15" d="M471.636,40.985C448.4,17.752,417.572,4.156,382.476,1.667c-31.551-2.237-64.326,4.6-95.245,19.812a7.665,7.665,0,0,0-3.314,10.512l.02.036a7.68,7.68,0,0,0,10.124,3.294c28.462-14,58.505-20.3,87.325-18.257,31.334,2.223,58.769,14.269,79.337,34.836,54.773,54.773,44.436,154.233-23.046,221.714S270.736,351.431,215.964,296.66c-26.326-26.325-38.555-63.73-34.434-105.323,4.177-42.168,24.589-83.5,57.478-116.39a212.686,212.686,0,0,1,28.639-24.023,7.718,7.718,0,0,0-8.781-12.694,228.131,228.131,0,0,0-30.774,25.8c-35.4,35.4-57.4,80.075-61.925,125.783-4.3,43.431,7.593,82.934,33.582,112.142l-77.123,77.123A18.245,18.245,0,0,0,97,379.264L38.673,437.588A7.718,7.718,0,1,0,49.587,448.5l58.324-58.324a2.828,2.828,0,0,1,4,0l10.53,10.53a2.834,2.834,0,0,1,0,4L31.416,495.738a2.828,2.828,0,0,1-4,0l-10.53-10.53a2.832,2.832,0,0,1,0-4l8.754-8.753a7.718,7.718,0,0,0-10.915-10.915L5.969,470.29a18.287,18.287,0,0,0,0,25.832l10.236,10.237a18.808,18.808,0,0,0,12.08,5.61,18.171,18.171,0,0,0,14.047-5.316l91.026-91.026A18.282,18.282,0,0,0,133.54,390l77.128-77.128c25.295,22.506,58.306,34.449,94.907,34.449q8.494,0,17.23-.862c45.709-4.528,90.379-26.52,125.784-61.925s57.395-80.075,61.924-125.783C515.1,112.462,501.292,70.641,471.636,40.985Z" fill="url(#linear-gradient)"/>
      </g>
    </g>
    <g id="Group_10" data-name="Group 10">
      <g id="Group_9" data-name="Group 9">
        <path id="Path_16" data-name="Path 16" d="M445.149,67.471C423.576,45.9,392.464,35.923,357.569,39.38c-37.114,3.677-73.69,21.837-102.989,51.136S207.122,156.389,203.444,193.5c-3.459,34.906,6.518,66.009,28.09,87.581,18.772,18.771,44.758,28.762,74.188,28.762q6.588,0,13.393-.672C356.228,305.5,392.8,287.338,422.1,258.039s47.459-65.874,51.136-102.988C476.7,120.147,466.72,89.044,445.149,67.471Zm-5.736,16.65a82.192,82.192,0,0,1,15.245,29.48L432.3,91.239Zm-173.2,90.158,30.606-30.606,30.605,30.606-30.606,30.606Zm19.69,41.521L255.3,246.408,224.692,215.8,255.3,185.194Zm21.831-83.043,30.6-30.6,30.606,30.605-30.6,30.6Zm30.6,52.437,30.6,30.6L338.338,246.4l-30.6-30.6Zm10.917-10.917,30.6-30.6,30.6,30.6-30.6,30.6Zm41.514-41.514,30.608-30.608,30.6,30.6-30.608,30.609Zm37.721-59.55-7.112,7.113L399.043,57.988A82.161,82.161,0,0,1,428.493,73.213ZM379.86,60.634l30.605,30.6-30.609,30.608-30.6-30.6Zm-20.77-5.893c1.759-.174,3.5-.3,5.235-.4L338.337,80.328,321.884,63.875A138.733,138.733,0,0,1,359.09,54.741Zm-52.171,16,20.505,20.5-30.6,30.6-25.75-25.75A169.6,169.6,0,0,1,306.919,70.738Zm-46.762,36.271,25.75,25.75L255.3,163.365l-20.5-20.5A169.51,169.51,0,0,1,260.157,107.009ZM218.8,195.028a138.714,138.714,0,0,1,9.131-37.2l16.451,16.451L218.4,200.265Q218.545,197.664,218.8,195.028Zm18.464,69.409a82.2,82.2,0,0,1-15.243-29.471l22.357,22.356Zm10.916,10.913,7.115-7.114,22.354,22.354A82.157,82.157,0,0,1,248.184,275.35Zm48.631,12.574-30.6-30.6,30.608-30.608,30.6,30.6Zm20.778,5.892q-2.641.262-5.244.4l25.989-25.989,16.454,16.454A138.691,138.691,0,0,1,317.593,293.816Zm52.165-15.994-20.506-20.506,30.606-30.606,25.753,25.753A169.607,169.607,0,0,1,369.758,277.822Zm46.77-36.277-25.753-25.752,30.6-30.6L441.882,205.7A169.537,169.537,0,0,1,416.528,241.545Zm41.351-88.015a138.636,138.636,0,0,1-9.135,37.2l-16.455-16.455,25.993-25.993C458.184,150.022,458.053,151.769,457.879,153.53Z" fill="url(#linear-gradient)"/>
      </g>
    </g>
    <g id="Group_12" data-name="Group 12">
      <g id="Group_11" data-name="Group 11">
        <path id="Path_17" data-name="Path 17" d="M148.883,34.406H131.409L32.333.418a7.719,7.719,0,0,0-10.222,7.3V144.073a7.717,7.717,0,0,0,10.222,7.3l99.076-33.989h17.474a41.488,41.488,0,0,0,0-82.976ZM37.547,18.524,122.4,47.636v20.54H37.547ZM122.4,104.153,37.547,133.265V83.612H122.4Zm26.479-2.206H137.84v-52.1h11.043a26.052,26.052,0,0,1,0,52.1Z" fill="url(#linear-gradient)"/>
      </g>
    </g>
  </g>
</svg>
