<svg xmlns="http://www.w3.org/2000/svg" width="75.613" height="75.622" viewBox="0 0 75.613 75.622">
  <defs>
    <style>
      .cls-1 {
        fill: #fda1a1;
      }
    </style>
  </defs>
  <path id="Icon_awesome-exclamation-circle" data-name="Icon awesome-exclamation-circle" class="cls-1" d="M76.175,38.373A37.806,37.806,0,1,1,38.369.563,37.807,37.807,0,0,1,76.175,38.373ZM38.369,46a7.013,7.013,0,1,0,7.012,7.013A7.013,7.013,0,0,0,38.369,46ZM31.711,20.787l1.131,20.735a1.829,1.829,0,0,0,1.827,1.73h7.4a1.829,1.829,0,0,0,1.827-1.73l1.131-20.735A1.83,1.83,0,0,0,43.2,18.858H33.537A1.829,1.829,0,0,0,31.711,20.787Z" transform="translate(-0.563 -0.563)"/>
</svg>
