<svg xmlns="http://www.w3.org/2000/svg" xmlns:xlink="http://www.w3.org/1999/xlink" width="371.944" height="601.865" viewBox="0 0 371.944 601.865">
  <defs>
    <linearGradient id="linear-gradient" x1="0.5" y1="0.104" x2="1.046" y2="0.912" gradientUnits="objectBoundingBox">
      <stop offset="0" stop-color="#fff367"/>
      <stop offset="1" stop-color="red"/>
    </linearGradient>
  </defs>
  <path id="Intersection_4" data-name="Intersection 4" d="M322.272,652.336l-68.8-85.077-.429,62.551a9.921,9.921,0,0,1-7.139,9.49c-.2.058-.419.108-.647.161a9.834,9.834,0,0,1-11.036-5.565c-24.038-52.7-53.66-100.31-88.084-141.671l-3.343.967a9.852,9.852,0,0,1-12.2-6.82l-10.876-38.25a9.959,9.959,0,0,1,6.763-12.3l341.338-98.711a9.853,9.853,0,0,1,12.2,6.82l10.875,38.249a9.959,9.959,0,0,1-6.764,12.3l-3.947,1.142c-10.67,46.874-10.56,100.047.3,166.694a9.958,9.958,0,0,1-6.224,10.907c-.266.1-.535.193-.8.269a9.823,9.823,0,0,1-11.04-4.233l-33.232-52.817L415.546,625.361a9.914,9.914,0,0,1-7.062,8.317c-.167.048-.331.1-.5.132a9.85,9.85,0,0,1-10.487-4.264q-26.3-40.619-54.14-76.691c-2.252,30.468-3.144,62.069-3.58,93.332a9.954,9.954,0,0,1-6.614,9.26c-.175.064-.353.115-.53.167l-.022.006a9.8,9.8,0,0,1-10.338-3.284ZM254.191,460.977l-.514,75.06,66.882,82.709c.741-29.876,2.116-59.729,4.925-88.379a874.088,874.088,0,0,0-64.927-71.23Zm111.5-32.246c-9.869,27.95-15.947,60.573-19.735,95.43q27.4,34.035,53.332,72.269l13.32-106.355L372.735,426.7ZM166.842,486.238A636.362,636.362,0,0,1,233.6,587.92l.3-44.859-49.962-61.769Zm276.14-79.856-9.914,79.085,22,34.979c-4.337-44.577-3.12-83.245,3.663-118.619Zm-238.4,68.944,29.535,36.527.308-45.158Zm77.773-22.491q23.56,23.676,46.292,50.4a447.866,447.866,0,0,1,14.141-67.875ZM392.5,420.979l23.989,38.131,5.855-46.76Zm-259.4-142.306c-19.519-68.654,19.841-140.269,87.917-159.955q4.776-1.382,9.607-2.39c-.046-.116-.092-.232-.126-.352l-10.875-38.25a9.959,9.959,0,0,1,6.763-12.3,9.85,9.85,0,0,1,12.2,6.82l10.876,38.248a10.072,10.072,0,0,1,.36,3.338C314.9,110.517,372.1,156.938,382.805,221.756S354.335,349.19,291.712,367.338l-.283.081a127.68,127.68,0,0,1-158.323-88.746Zm79.511,64.466a107.122,107.122,0,0,0,63.319,7.469,108.15,108.15,0,0,0-39.86-50.151Zm33.062-60.153a127.881,127.881,0,0,1,49.331,62.21,108.039,108.039,0,0,0,51.061-40.65l-85.86-48Zm-90.209.319a108.3,108.3,0,0,0,39.89,50.207l23.467-42.7a106.726,106.726,0,0,0-63.357-7.511Zm114.3-44.152,85.875,48.006a109.264,109.264,0,0,0,7.824-61.534,126.131,126.131,0,0,1-81.56-8.559Zm-41.341,34.191L242.963,246.9,157.089,198.9a109.293,109.293,0,0,0-7.172,65.227,126.022,126.022,0,0,1,78.516,9.22ZM166.664,181.51l85.861,48,12.139-22.085a127.958,127.958,0,0,1-50.389-65.165A107.975,107.975,0,0,0,166.664,181.51Zm124.851,18.082a106.6,106.6,0,0,0,67.046,6.729,108.4,108.4,0,0,0-41.187-53.778ZM233.1,136.233a108.251,108.251,0,0,0,41.17,53.717l25.851-47.033a107.112,107.112,0,0,0-67.02-6.684Zm-36.474-31.157L185.748,66.827a9.96,9.96,0,0,1,6.763-12.3,9.852,9.852,0,0,1,12.2,6.82l10.876,38.25a9.961,9.961,0,0,1-6.763,12.3l-.021.006a9.823,9.823,0,0,1-12.18-6.827Zm59.609-6.89-2.719-9.562a9.959,9.959,0,0,1,6.763-12.3,9.853,9.853,0,0,1,12.2,6.82l2.718,9.563a9.959,9.959,0,0,1-6.762,12.3l-.023.007a9.822,9.822,0,0,1-12.178-6.827Zm-93.49-4.009-2.72-9.562a9.96,9.96,0,0,1,6.764-12.3,9.853,9.853,0,0,1,12.2,6.82l2.718,9.563a9.961,9.961,0,0,1-6.762,12.3l-.022.006a9.823,9.823,0,0,1-12.178-6.826Z" transform="translate(-119.334 -54.134)" fill="url(#linear-gradient)"/>
</svg>
