<svg xmlns="http://www.w3.org/2000/svg" width="41.919" height="41.919" viewBox="0 0 41.919 41.919">
  <path id="mars" d="M41.9,1.521a1.73,1.73,0,0,0-.107-.432.052.052,0,0,1,0-.012l0,0a1.778,1.778,0,0,0-.237-.394C41.525.652,41.5.624,41.478.6a1.782,1.782,0,0,0-.334-.3L41.133.29a1.72,1.72,0,0,0-.4-.188c-.035-.012-.069-.023-.1-.032A1.741,1.741,0,0,0,40.173,0H27.946a1.747,1.747,0,0,0,0,3.493h8.009L25.53,13.918A15.73,15.73,0,1,0,28,16.389L38.426,5.963v8.01a1.747,1.747,0,1,0,3.493,0V1.747c0-.037-.009-.072-.011-.107S41.9,1.561,41.9,1.521ZM15.72,38.426A12.234,12.234,0,1,1,27.946,26.2,12.24,12.24,0,0,1,15.72,38.426Zm0,0" transform="translate(0 0)" fill="#6a8ef9"/>
</svg>
