<svg xmlns="http://www.w3.org/2000/svg" xmlns:xlink="http://www.w3.org/1999/xlink" width="570.999" height="570.999" viewBox="0 0 570.999 570.999">
  <defs>
    <filter id="Intersection_5" x="0" y="0" width="570.999" height="570.999" filterUnits="userSpaceOnUse">
      <feOffset dx="10" dy="10" input="SourceAlpha"/>
      <feGaussianBlur stdDeviation="10" result="blur"/>
      <feFlood flood-opacity="0.161"/>
      <feComposite operator="in" in2="blur"/>
      <feComposite in="SourceGraphic"/>
    </filter>
  </defs>
  <g transform="matrix(1, 0, 0, 1, 0, 0)" filter="url(#Intersection_5)">
    <path id="Intersection_5-2" data-name="Intersection 5" d="M161.891,511.5a174.013,174.013,0,0,1-45.523-9.66,9.993,9.993,0,0,1-1.252-.442,175.655,175.655,0,0,1-67.488-44.616,9.991,9.991,0,0,1-1.692-1.817A174.516,174.516,0,0,1,.5,350.159V323.78q.267-3.5.673-6.988.034-.482.113-.96a176.054,176.054,0,0,1,22.607-67.275,9.945,9.945,0,0,1,.711-1.2,173.117,173.117,0,0,1,13.736-19.877,176.253,176.253,0,0,1,81.518-56.849l-23.55-13.6-3.9,6.749A25.22,25.22,0,0,1,77,175.614a25.5,25.5,0,0,1-6.611.877,25.229,25.229,0,0,1-12.652-3.412l-2.083-1.2A25.383,25.383,0,0,1,46.361,137.2l3.932-6.812C29.33,116.834,21.5,90.683,32.922,70.9L49.374,42.4C58.292,26.95,76.46,18.986,95.649,22.1l.2.036c32.147,5.9,193.491,35.934,213.009,47.2l4.556,2.63L352.2,4.99A9.96,9.96,0,0,1,357.732.5h6.244A10,10,0,0,1,369.5,15.008L325.72,90.627a0,0,0,0,1,0,0l-9.859,17.077a14.105,14.105,0,0,0,5.154,19.244l53.309,30.8a31.627,31.627,0,0,0,18.453,4.219l12.033-3.225,5.25-1.714a45.914,45.914,0,0,1,8.281-1.86l.049-.005a48.457,48.457,0,0,1,12.337-.015l45.351-78.713A10,10,0,1,1,493.4,86.416l-43.347,75.235c.076.043.153.081.228.124,10.122,5.843,13.907,18.3,8.439,27.776l-38.677,66.991-16.455,28.5c-7.51,13.007-21.637,20.119-36.715,20.119a49.493,49.493,0,0,1-16.5-2.878l-2.686,4.656,1.148,7.312c.015.1.029.194.041.291.107.84.185,1.686.281,2.528.018.14.035.28.047.421a177.673,177.673,0,0,1,1.082,19.361,174.4,174.4,0,0,1-42.9,114.71,10.091,10.091,0,0,1-1.6,1.806A175.9,175.9,0,0,1,241.7,498.845a9.939,9.939,0,0,1-1.517.621A173.872,173.872,0,0,1,188.4,511.5Zm-20.266-23.155a155.51,155.51,0,0,0,71.842-1.138l-37.9-23.189ZM118.862,368.6,72.229,379.068,64.5,445.5a155.651,155.651,0,0,0,53.123,35.444L164.98,447V399.941l-43.843-31.855Zm98.718,7.895L185.3,399.941v46.593l52.609,32.189a155.883,155.883,0,0,0,50.611-36.086l-10.158-63.5L232.3,368.795l-3.152-.707ZM46.868,424.028l5.769-49.594L20.051,340.97A154.205,154.205,0,0,0,46.868,424.028ZM297.842,374.3l7.493,46.843a154.2,154.2,0,0,0,24.874-79.494Zm-162.4-20.776,39.868,28.966,19.934-14.483,19.934-14.483-15.228-46.869h-49.28Zm96.987-95.182a10,10,0,0,1,2.855,13.847L218.2,298.138l11.228,34.551,5.246,16.146L283.96,359.9l36.95-37.275a25.224,25.224,0,0,1-9.732-3.218l-2.082-1.2h0a25.414,25.414,0,0,1-9.292-34.676l4.08-7.065-9.538-5.507a10,10,0,0,1-4.471-5.451c-3.17-9.363-10.278-17.786-19.5-23.111l-27.649-15.963a17.522,17.522,0,0,0-11.978-2.2,37.122,37.122,0,0,1-25.795-4.47L181.84,206.42l-3.9,6.75a25.4,25.4,0,0,1-34.675,9.29l-2.083-1.2a25.267,25.267,0,0,1-8.627-8.194l-14.99,25.989,30.935,47.6h53.318L218.576,261.2a10,10,0,0,1,13.848-2.855Zm-193.41,3.749a154.753,154.753,0,0,0-17.352,51.875L66.38,359.888l8.754-1.966,40.473-9.086,16.484-50.73L101.11,250.429ZM317.12,293.526a5.4,5.4,0,0,0,1.972,7.362l2.083,1.2a5.4,5.4,0,0,0,7.363-1.972l3.9-6.75-11.417-6.592Zm-64.4-84.413,27.648,15.963a63.32,63.32,0,0,1,27.064,30.348l44.318,25.587c12.179,7.032,26.719,4.991,33.474-4.357-.621.023-1.242.045-1.864.045a50.4,50.4,0,0,1-25.15-6.873l-47.408-27.372A9.995,9.995,0,0,1,306.334,237c-3.17-9.362-10.278-17.785-19.5-23.111l-27.648-15.963a17.5,17.5,0,0,0-11.977-2.194,37.13,37.13,0,0,1-25.8-4.469L69.03,103.288A50.677,50.677,0,0,1,49.284,82.8c-4.7,10.727.917,24.53,13.289,31.674l6.336,3.659.007,0,28.732,16.589.008.005,75.651,43.678,9.873,5.7,0,0,31.769,18.34a17.36,17.36,0,0,0,11.881,2.178,35.422,35.422,0,0,1,6.942-.683A37.96,37.96,0,0,1,252.724,209.113Zm16.454-28.5,27.651,15.963a63.329,63.329,0,0,1,27.064,30.348l44.318,25.588a29.4,29.4,0,0,0,20.393,3.68,20.516,20.516,0,0,0,14.125-9.644L441.17,179.96a2.245,2.245,0,0,0-.887-.865,31.43,31.43,0,0,0-18.573-4.18l-11.218,3.006-5.837,1.906a45.983,45.983,0,0,1-8.172,1.849l-47.774,12.8a10,10,0,0,1-5.175-19.315l14.317-3.837-46.84-27.058A34.126,34.126,0,0,1,298.542,97.71l4.869-8.433-4.546-2.624c-3.077-1.776-12.446-4.524-25.9-7.859l9.654,36.031a10,10,0,0,1-11.367,12.438l-36.024-6.253a10,10,0,0,1-7.947-7.264L214.411,65.707c-4.772-1-9.639-2.006-14.566-3.017l10.471,39.081a10,10,0,0,1-11.367,12.438l-36.023-6.253a10,10,0,0,1-7.947-7.264L141.7,51.129c-17.545-3.389-34.433-6.572-49.345-9.311C81.473,40.086,71.408,44.23,66.695,52.394c-6.318,10.94-.786,26,12.33,33.576l152.381,87.977a17.367,17.367,0,0,0,11.882,2.178,35.431,35.431,0,0,1,6.943-.683A37.962,37.962,0,0,1,269.177,180.61ZM54.666,238.805l44.815-8.417,22.756-39.449A154.258,154.258,0,0,0,54.666,238.805Zm94.544-42.223a5.389,5.389,0,0,0,1.972,7.361h0l2.083,1.2a5.4,5.4,0,0,0,7.36-1.974l3.9-6.749-4.454-2.572-6.962-4.018ZM63.678,147.2a5.387,5.387,0,0,0,1.971,7.358h0l2.083,1.2a5.386,5.386,0,0,0,7.358-1.972l3.9-6.749L67.574,140.45Zm181.266-44.8,14.312,2.484L250.874,73.6c-4.623-1.042-9.473-2.115-14.507-3.211Zm-72.3-13.052,14.312,2.484-9-33.575q-7.194-1.436-14.414-2.863Zm137.3,110.343a9.994,9.994,0,1,1,7.069,2.93A10.075,10.075,0,0,1,309.937,199.689ZM494.831,58.707a10,10,0,1,1,16.669-9.84v5.544a9.991,9.991,0,0,1-16.669,4.3Z" transform="translate(19.5 19.5)" fill="#d3ffde"/>
  </g>
</svg>
