<svg xmlns="http://www.w3.org/2000/svg" xmlns:xlink="http://www.w3.org/1999/xlink" width="511.898" height="511.997" viewBox="0 0 511.898 511.997">
  <defs>
    <linearGradient id="linear-gradient" x1="0.5" x2="0.5" y2="1" gradientUnits="objectBoundingBox">
      <stop offset="0" stop-color="#b7ffcd"/>
      <stop offset="1" stop-color="#4caa53"/>
    </linearGradient>
  </defs>
  <g id="soccer" transform="translate(-0.051 -0.001)">
    <g id="Group_28" data-name="Group 28">
      <g id="Group_27" data-name="Group 27">
        <path id="Path_25" data-name="Path 25" d="M324.126,185.554a9.994,9.994,0,1,0,2.929,7.069A10.055,10.055,0,0,0,324.126,185.554Z" fill="url(#linear-gradient)"/>
      </g>
    </g>
    <g id="Group_30" data-name="Group 30">
      <g id="Group_29" data-name="Group 29">
        <path id="Path_26" data-name="Path 26" d="M489.781,72.765a10,10,0,0,0-13.654,3.672L430.776,155.15a48.466,48.466,0,0,0-12.337.015l-.05.006a45.932,45.932,0,0,0-8.281,1.86l-5.249,1.714-12.033,3.224a31.628,31.628,0,0,1-18.453-4.219l-53.309-30.8a14.105,14.105,0,0,1-5.154-19.244l9.859-17.077a.005.005,0,0,0,0,0L369.554,15.01a10,10,0,0,0-17.3-10.019L313.47,71.968l-4.556-2.63C289.4,58.068,128.052,28.038,95.9,22.134c-.068-.013-.136-.024-.2-.036-19.19-3.111-37.358,4.853-46.276,20.3L32.973,70.9c-11.425,19.787-3.592,45.937,17.371,59.493L46.412,137.2A25.383,25.383,0,0,0,55.7,171.878l2.083,1.2a25.23,25.23,0,0,0,12.652,3.412,25.5,25.5,0,0,0,6.612-.877,25.218,25.218,0,0,0,15.413-11.827l3.9-6.749,23.551,13.6a176.248,176.248,0,0,0-81.519,56.849,173.28,173.28,0,0,0-13.736,19.877,10.073,10.073,0,0,0-.711,1.2A176.073,176.073,0,0,0,1.338,315.834q-.079.479-.113.961A174.445,174.445,0,0,0,45.986,454.967a10.012,10.012,0,0,0,1.692,1.817A175.661,175.661,0,0,0,115.167,501.4a10.061,10.061,0,0,0,1.252.442,175.106,175.106,0,0,0,123.82-2.374,9.971,9.971,0,0,0,1.516-.621,175.9,175.9,0,0,0,64.081-45.476,10.077,10.077,0,0,0,1.6-1.806,174.4,174.4,0,0,0,42.9-114.71,177.615,177.615,0,0,0-1.082-19.361c-.012-.141-.029-.281-.047-.421-.1-.843-.174-1.689-.281-2.528-.012-.1-.026-.194-.041-.291l-1.149-7.312,2.687-4.655a49.513,49.513,0,0,0,16.5,2.878c15.078,0,29.2-7.113,36.715-20.12l16.455-28.5,38.677-66.991c5.468-9.473,1.683-21.933-8.439-27.776-.075-.043-.152-.081-.228-.124l43.347-75.235A10,10,0,0,0,489.781,72.765ZM250.925,73.6l8.382,31.286L245,102.4l-8.577-32.013C241.452,71.483,246.3,72.556,250.925,73.6ZM178.009,58.257l9,33.575-14.312-2.484-9.1-33.954Q170.8,56.817,178.009,58.257ZM75.143,153.792a5.387,5.387,0,0,1-7.359,1.972l-2.083-1.2h0a5.388,5.388,0,0,1-1.971-7.359l3.9-6.75,11.416,6.591Zm47.145,37.149L99.533,230.39l-44.816,8.417A154.266,154.266,0,0,1,122.288,190.941Zm33.68,34.917a25.4,25.4,0,0,0,22.027-12.687l3.9-6.75L205,219.766a37.127,37.127,0,0,0,25.795,4.47,17.525,17.525,0,0,1,11.978,2.2l27.649,15.963c9.224,5.326,16.332,13.749,19.5,23.111a9.995,9.995,0,0,0,4.471,5.452l9.538,5.507-4.079,7.065a25.413,25.413,0,0,0,9.291,34.676h0l2.082,1.2a25.223,25.223,0,0,0,9.732,3.219L284.011,359.9l-49.284-11.065-5.246-16.146-11.227-34.551,17.076-25.948a10,10,0,1,0-16.7-10.993l-16.755,25.461H148.554l-30.935-47.6,14.991-25.989a25.266,25.266,0,0,0,8.627,8.194l2.083,1.2A25.191,25.191,0,0,0,155.968,225.858Zm-6.707-29.274,3.9-6.749,6.962,4.019,4.454,2.572-3.9,6.749a5.4,5.4,0,0,1-7.36,1.974l-2.083-1.2s0,0,0,0a5.389,5.389,0,0,1-1.972-7.361Zm65.964,156.941-19.934,14.483-19.934,14.483-39.868-28.966,15.228-46.869H200ZM39.065,262.093l62.1-11.663,30.982,47.677-16.484,50.73-40.473,9.087-8.754,1.966L21.713,313.968A154.76,154.76,0,0,1,39.065,262.093ZM46.92,424.03A154.211,154.211,0,0,1,20.1,340.972l32.587,33.463ZM64.553,445.5,72.28,379.07,118.913,368.6l2.275-.511,43.843,31.855V447l-47.355,33.941A155.662,155.662,0,0,1,64.553,445.5ZM175.194,492a154.994,154.994,0,0,1-33.518-3.657l33.941-24.326,37.9,23.189A154.906,154.906,0,0,1,175.194,492Zm62.77-13.279-52.609-32.188V399.943l32.277-23.45,11.568-8.4,3.152.708,46.065,10.343,10.158,63.5A155.877,155.877,0,0,1,237.964,478.724Zm67.423-57.579L297.894,374.3l32.367-32.651A154.2,154.2,0,0,1,305.387,421.145Zm23.2-121.026a5.4,5.4,0,0,1-7.363,1.972l-2.082-1.2a5.4,5.4,0,0,1-1.972-7.362l3.9-6.75,11.416,6.591ZM351.8,281.013l-44.318-25.587a63.322,63.322,0,0,0-27.064-30.348l-27.648-15.963a37.255,37.255,0,0,0-25.892-4.487A17.363,17.363,0,0,1,215,202.45l-31.769-18.341h0l-9.873-5.7L97.707,134.73l-.008-.005L68.967,118.136l-.007,0-6.336-3.658C50.252,107.331,44.634,93.528,49.335,82.8a50.68,50.68,0,0,0,19.746,20.488l152.381,87.977a37.131,37.131,0,0,0,25.8,4.47,17.5,17.5,0,0,1,11.977,2.194l27.648,15.963c9.224,5.326,16.332,13.749,19.5,23.111a9.995,9.995,0,0,0,4.471,5.452l47.408,27.372a50.392,50.392,0,0,0,25.15,6.873c.622,0,1.243-.021,1.864-.045C378.524,286,363.983,288.045,351.8,281.013Zm50.974-34.466a20.516,20.516,0,0,1-14.125,9.644,29.394,29.394,0,0,1-20.393-3.68l-44.318-25.588a63.327,63.327,0,0,0-27.064-30.348l-27.65-15.963a37.264,37.264,0,0,0-25.891-4.486,17.359,17.359,0,0,1-11.881-2.178L79.076,85.972C65.96,78.4,60.428,63.336,66.746,52.4,71.459,44.232,81.524,40.088,92.4,41.82c14.912,2.739,31.8,5.921,49.345,9.311l13.28,49.563a10,10,0,0,0,7.947,7.264L199,114.211a9.891,9.891,0,0,0,1.71.147,10,10,0,0,0,9.657-12.585L199.9,62.692c4.927,1.011,9.794,2.019,14.566,3.017l12.871,48.039a10,10,0,0,0,7.947,7.264l36.024,6.253a9.891,9.891,0,0,0,1.71.147,10,10,0,0,0,9.657-12.585L273.017,78.8c13.453,3.334,22.822,6.083,25.9,7.859l4.546,2.624-4.869,8.433a34.125,34.125,0,0,0,12.469,46.557l46.84,27.058-14.317,3.836a10,10,0,1,0,5.175,19.315l47.774-12.8a46.038,46.038,0,0,0,8.172-1.849l5.837-1.906,11.218-3.006a31.429,31.429,0,0,1,18.573,4.18,2.245,2.245,0,0,1,.887.865Z" fill="url(#linear-gradient)"/>
      </g>
    </g>
    <g id="Group_32" data-name="Group 32">
      <g id="Group_31" data-name="Group 31">
        <path id="Path_27" data-name="Path 27" d="M509.02,44.572a9.994,9.994,0,1,0,2.929,7.068A10.073,10.073,0,0,0,509.02,44.572Z" fill="url(#linear-gradient)"/>
      </g>
    </g>
  </g>
</svg>
