<svg xmlns="http://www.w3.org/2000/svg" xmlns:xlink="http://www.w3.org/1999/xlink" width="564" height="483" viewBox="0 0 564 483">
  <defs>
    <filter id="Intersection_7" x="0" y="0" width="564" height="483" filterUnits="userSpaceOnUse">
      <feOffset dx="5" dy="5" input="SourceAlpha"/>
      <feGaussianBlur stdDeviation="10" result="blur"/>
      <feFlood flood-opacity="0.271"/>
      <feComposite operator="in" in2="blur"/>
      <feComposite in="SourceGraphic"/>
    </filter>
  </defs>
  <g transform="matrix(1, 0, 0, 1, 0, 0)" filter="url(#Intersection_7)">
    <path id="Intersection_7-2" data-name="Intersection 7" d="M495.438,423.5a7.426,7.426,0,0,1-.857-.3,7.493,7.493,0,0,1-4.581-6.91V357.282a59.611,59.611,0,0,1-53.75-3.794,59.613,59.613,0,0,1-61.25,0,59.607,59.607,0,0,1-61.25,0,59.607,59.607,0,0,1-61.25,0,59.617,59.617,0,0,1-61.25,0,59.618,59.618,0,0,1-61.25,0,59.615,59.615,0,0,1-61.25,0,59.612,59.612,0,0,1-30.625,8.467q-2.95,0-5.892-.293t-5.848-.878q-2.905-.585-5.758-1.462A59.674,59.674,0,0,1,15,357.278v59.009A7.5,7.5,0,0,1,9.563,423.5H5.437a7.425,7.425,0,0,1-.857-.3A7.524,7.524,0,0,1,.59,419.207q-.046-.109-.089-.22V184.095q.043-.111.089-.22a7.493,7.493,0,0,1,6.91-4.581h273a7.5,7.5,0,1,1,0,15H260v37.463a44.649,44.649,0,0,0,46.25,0V211.8a7.5,7.5,0,1,1,15,0v19.961a44.649,44.649,0,0,0,46.25,0v-1.688a7.5,7.5,0,1,1,15,0v1.688a44.649,44.649,0,0,0,46.25,0V209.068a7.5,7.5,0,1,1,15,0v22.689a44.649,44.649,0,0,0,46.25,0V194.294H460a7.5,7.5,0,1,1,0-15h37.5a7.509,7.509,0,0,1,6.91,4.581q.047.11.09.223V418.985q-.043.112-.09.223a7.5,7.5,0,0,1-4.848,4.293ZM443.75,340.493a44.644,44.644,0,0,0,46.25,0V302.914a59.607,59.607,0,0,1-46.25,0Zm-61.25,0a44.644,44.644,0,0,0,46.25,0V302.916a59.594,59.594,0,0,1-46.25,0Zm-61.25,0a44.644,44.644,0,0,0,46.25,0V302.916a59.6,59.6,0,0,1-46.25,0Zm-61.25,0a44.644,44.644,0,0,0,46.25,0V302.916a59.594,59.594,0,0,1-46.25,0Zm-61.251,0a44.644,44.644,0,0,0,46.251,0V302.916a59.612,59.612,0,0,1-46.251,0Zm-61.249,0a44.651,44.651,0,0,0,46.25,0V302.917a59.61,59.61,0,0,1-46.25,0Zm-61.25,0a44.651,44.651,0,0,0,46.25,0V302.917a59.593,59.593,0,0,1-46.25,0Zm-61.25,0a44.65,44.65,0,0,0,46.249,0V302.917a59.608,59.608,0,0,1-11.385,3.5q-2.905.585-5.847.877t-5.892.292q-2.95,0-5.892-.293t-5.848-.878q-2.905-.586-5.758-1.462T15,302.912ZM443.75,286.125a44.642,44.642,0,0,0,46.25,0V248.547a59.611,59.611,0,0,1-46.25,0Zm-122.5,0a44.649,44.649,0,0,0,46.25,0V248.549a59.608,59.608,0,0,1-46.25,0Zm-61.25,0a44.649,44.649,0,0,0,46.25,0V248.549a59.608,59.608,0,0,1-46.25,0Zm122.5,0a44.643,44.643,0,0,0,46.25,0V248.548a59.608,59.608,0,0,1-46.25,0Zm-183.751,0a44.644,44.644,0,0,0,46.251,0V248.548a59.6,59.6,0,0,1-46.251,0Zm-61.249,0a44.649,44.649,0,0,0,46.25,0V248.548a59.61,59.61,0,0,1-46.25,0Zm-61.25,0a44.649,44.649,0,0,0,46.25,0V248.548a59.594,59.594,0,0,1-46.25,0Zm-61.25,0a44.648,44.648,0,0,0,46.249,0V248.548a59.606,59.606,0,0,1-11.385,3.5q-2.905.585-5.847.877t-5.892.293q-2.95,0-5.892-.293t-5.848-.878q-2.905-.586-5.758-1.462T15,248.543Zm122.5-54.367a44.649,44.649,0,0,0,46.25,0V194.294H137.5Zm-61.25,0a44.649,44.649,0,0,0,46.25,0V194.294H76.25Zm-61.25,0a44.648,44.648,0,0,0,46.249,0V194.294H15Zm183.749,0a44.643,44.643,0,0,0,46.251,0V194.294H198.75Zm132.281-25.691a107.313,107.313,0,0,1,0-197.622A106.4,106.4,0,0,1,362.336.5H481.2q.111.043.22.089A7.5,7.5,0,0,1,478.5,15H427.383a108.086,108.086,0,0,1,38.106,38.446A107.239,107.239,0,0,1,331.031,206.064Zm104.011-39.706q-8.537,5.308-17.51,9.866t-18.306,8.32q-9.334,3.764-18.988,6.71V199.2a91.64,91.64,0,0,0,41.433-13.772,92.958,92.958,0,0,0,29.968-30.415Q443.588,161.044,435.042,166.358Zm-92.084-42.6q-.645,11.954-.558,23.926t.9,23.918q.818,11.947,2.368,23.849,2.35.722,4.751,1.322t4.85,1.069q2.448.471,4.94.812t5.025.544V111.582l-20.261-11.7Q343.6,111.8,342.958,123.757Zm-36.739-20.074a216.887,216.887,0,0,0,5.222,72.448q2.082,1.855,4.275,3.585t4.487,3.326q2.3,1.6,4.69,3.054t4.88,2.772q-1.318-12.112-1.908-24.269t-.453-24.318q.138-12.162,1-24.306T330.87,91.74l-20.964-12.1A216.413,216.413,0,0,0,306.219,103.684Zm138.63,13.539q-10.225,6.63-20.831,12.638t-21.555,11.37q-10.949,5.364-22.225,10.073v24.221a216.263,216.263,0,0,0,22.724-8.914,217.487,217.487,0,0,0,21.552-11.393,217.157,217.157,0,0,0,20.147-13.735,215.805,215.805,0,0,0,18.507-15.943q.448-2.217.788-4.471t.571-4.542q.231-2.287.347-4.606t.117-4.666q0-.491-.006-.981t-.018-.977c-.007-.326-.017-.651-.028-.976s-.023-.65-.037-.974Q455.078,110.588,444.848,117.222ZM285.578,77.014a91.589,91.589,0,0,0-4.506,19.8,92.991,92.991,0,0,0,.166,22.251,91.663,91.663,0,0,0,10.544,32.388q-1.161-9.959-1.46-19.984t.265-20.028q.564-10,1.99-19.941t3.713-19.724l-6.922-4A91.866,91.866,0,0,0,285.578,77.014Zm94.66,34.569v23.411q11-4.8,21.676-10.264T422.9,113.173q10.313-6.1,20.244-12.821T462.589,86.3q-.564-2.422-1.256-4.794t-1.5-4.69q-.813-2.317-1.744-4.577t-1.977-4.459ZM306.246,43.376q-1.706,1.774-3.316,3.639t-3.121,3.811q-1.509,1.948-2.918,3.976l75.847,43.789,20.273-11.7Q383.36,79.763,373.3,73.25T352.823,60.856q-10.426-5.882-21.2-11.121t-21.871-9.817Q307.952,41.6,306.246,43.376Zm31.885-21.638q-2.593,1.053-5.107,2.257t-4.939,2.553q-2.426,1.347-4.762,2.835,11.177,4.888,22.029,10.432T366.7,51.539q10.494,6.18,20.611,12.983t19.823,14.212l20.975-12.11a217.011,217.011,0,0,0-84.714-46.839Q340.726,20.684,338.131,21.739Zm54.633,1.993q8.867,4.741,17.3,10.236t16.36,11.7q7.926,6.2,15.305,13.1l6.856-3.958a92.954,92.954,0,0,0-31.617-28.485,91.649,91.649,0,0,0-42.33-11.293Q383.889,18.984,392.764,23.731ZM474.5,42.568a7.5,7.5,0,1,1,0-15h19a7.5,7.5,0,1,1,0,15Z" transform="translate(24.5 24.5)" fill="#ff9fb9"/>
  </g>
</svg>
