<svg xmlns="http://www.w3.org/2000/svg" width="77.46" height="77.46" viewBox="0 0 77.46 77.46">
  <defs>
    <style>
      .cls-1 {
        fill: #98e29d;
      }
    </style>
  </defs>
  <path id="Icon_awesome-check-circle" data-name="Icon awesome-check-circle" class="cls-1" d="M78.023,39.293A38.73,38.73,0,1,1,39.293.562,38.73,38.73,0,0,1,78.023,39.293ZM34.813,59.8,63.548,31.065a2.5,2.5,0,0,0,0-3.534L60.014,24a2.5,2.5,0,0,0-3.534,0L33.046,47.432,22.1,36.491a2.5,2.5,0,0,0-3.534,0l-3.534,3.534a2.5,2.5,0,0,0,0,3.534L31.279,59.8a2.5,2.5,0,0,0,3.534,0Z" transform="translate(-0.563 -0.563)"/>
</svg>
